<svg xmlns="http://www.w3.org/2000/svg" xmlns:xlink="http://www.w3.org/1999/xlink" width="80" zoomAndPan="magnify" viewBox="0 0 60 60" height="80" preserveAspectRatio="xMidYMid meet" version="1.0"><path fill="#38b6ff" d="M 31.066406 50.84375 C 22.953125 50.84375 19.050781 46.957031 16.203125 44.121094 C 15.152344 42.808594 13.847656 41.839844 12.292969 41.203125 C 10.585938 40.785156 8.285156 40.757812 5.644531 44.214844 C 5.433594 44.488281 5.1875 44.714844 4.898438 44.902344 C 4.609375 45.089844 4.300781 45.222656 3.964844 45.304688 C 3.632812 45.382812 3.296875 45.40625 2.953125 45.367188 C 2.613281 45.332031 2.289062 45.238281 1.980469 45.085938 C 1.667969 44.9375 1.394531 44.742188 1.152344 44.496094 C 0.914062 44.253906 0.71875 43.972656 0.574219 43.664062 C 0.429688 43.351562 0.34375 43.027344 0.3125 42.683594 C 0.277344 42.34375 0.304688 42.003906 0.390625 41.671875 C 2.585938 33.0625 8.386719 28.511719 17.171875 28.511719 C 25.285156 28.511719 29.1875 32.398438 32.035156 35.234375 C 33.085938 36.542969 34.390625 37.515625 35.945312 38.148438 C 37.652344 38.566406 39.953125 38.597656 42.59375 35.140625 C 42.804688 34.867188 43.050781 34.636719 43.339844 34.449219 C 43.628906 34.265625 43.9375 34.128906 44.273438 34.050781 C 44.605469 33.972656 44.941406 33.949219 45.285156 33.988281 C 45.625 34.023438 45.949219 34.117188 46.257812 34.265625 C 46.570312 34.417969 46.84375 34.613281 47.085938 34.859375 C 47.324219 35.101562 47.519531 35.378906 47.664062 35.691406 C 47.808594 36.003906 47.894531 36.328125 47.925781 36.671875 C 47.960938 37.011719 47.933594 37.351562 47.847656 37.683594 C 45.652344 46.292969 39.851562 50.84375 31.066406 50.84375 Z M 12.46875 35.179688 C 12.886719 35.242188 13.300781 35.320312 13.710938 35.421875 C 16.375 36.261719 18.605469 37.753906 20.398438 39.898438 C 22.980469 42.464844 25.414062 44.886719 31.066406 44.886719 C 32.675781 44.921875 34.242188 44.683594 35.769531 44.171875 C 35.351562 44.113281 34.9375 44.035156 34.527344 43.933594 C 31.863281 43.09375 29.632812 41.601562 27.839844 39.457031 C 25.257812 36.890625 22.824219 34.464844 17.171875 34.464844 C 15.5625 34.433594 13.996094 34.671875 12.46875 35.179688 Z M 42.976562 31.488281 C 34.863281 31.488281 30.957031 27.601562 28.109375 24.761719 C 27.058594 23.453125 25.757812 22.484375 24.207031 21.851562 C 22.496094 21.433594 20.195312 21.402344 17.554688 24.859375 C 17.34375 25.132812 17.097656 25.363281 16.808594 25.550781 C 16.523438 25.734375 16.210938 25.871094 15.878906 25.949219 C 15.542969 26.027344 15.207031 26.050781 14.863281 26.011719 C 14.523438 25.976562 14.199219 25.882812 13.890625 25.734375 C 13.582031 25.582031 13.304688 25.386719 13.066406 25.140625 C 12.824219 24.898438 12.632812 24.621094 12.488281 24.308594 C 12.339844 23.996094 12.253906 23.671875 12.222656 23.328125 C 12.191406 22.988281 12.214844 22.648438 12.300781 22.316406 C 14.496094 13.707031 20.296875 9.15625 29.082031 9.15625 C 37.195312 9.15625 41.097656 13.042969 43.949219 15.878906 C 44.996094 17.191406 46.300781 18.160156 47.855469 18.796875 C 49.5625 19.210938 51.863281 19.242188 54.507812 15.785156 C 54.714844 15.511719 54.960938 15.285156 55.25 15.097656 C 55.539062 14.910156 55.847656 14.777344 56.183594 14.695312 C 56.515625 14.617188 56.855469 14.59375 57.195312 14.632812 C 57.535156 14.667969 57.859375 14.761719 58.171875 14.914062 C 58.480469 15.0625 58.753906 15.257812 58.996094 15.503906 C 59.234375 15.746094 59.429688 16.027344 59.574219 16.335938 C 59.71875 16.648438 59.804688 16.972656 59.839844 17.316406 C 59.871094 17.65625 59.84375 17.996094 59.757812 18.328125 C 57.5625 26.9375 51.761719 31.488281 42.976562 31.488281 Z M 24.378906 15.828125 C 24.796875 15.886719 25.210938 15.964844 25.621094 16.066406 C 28.285156 16.90625 30.515625 18.398438 32.308594 20.542969 C 34.773438 23.003906 37.324219 25.535156 42.976562 25.535156 C 44.585938 25.566406 46.152344 25.328125 47.679688 24.820312 C 47.261719 24.757812 46.847656 24.679688 46.4375 24.578125 C 43.773438 23.738281 41.542969 22.246094 39.75 20.101562 C 37.171875 17.535156 34.734375 15.113281 29.082031 15.113281 C 27.472656 15.078125 25.90625 15.316406 24.378906 15.828125 Z M 24.378906 15.828125 " fill-opacity="1" fill-rule="nonzero"/></svg>