<svg xmlns="http://www.w3.org/2000/svg" xmlns:xlink="http://www.w3.org/1999/xlink" width="80" zoomAndPan="magnify" viewBox="0 0 60 60" height="80" preserveAspectRatio="xMidYMid meet" version="1.0"><defs><clipPath id="d050330e05"><path d="M 0 4.144531 L 60 4.144531 L 60 55.894531 L 0 55.894531 Z M 0 4.144531 " clip-rule="nonzero"/></clipPath><clipPath id="f5cf87015d"><path d="M 11 4.144531 L 48 4.144531 L 48 36 L 11 36 Z M 11 4.144531 " clip-rule="nonzero"/></clipPath></defs><g clip-path="url(#d050330e05)"><path fill="#41b883" d="M 47.984375 4.144531 L 59.972656 4.144531 L 30 55.894531 L 0.0273438 4.144531 L 22.957031 4.144531 L 30 16.144531 L 36.894531 4.144531 Z M 47.984375 4.144531 " fill-opacity="1" fill-rule="nonzero"/><path fill="#41b883" d="M 0.0273438 4.144531 L 30 55.894531 L 59.972656 4.144531 L 47.984375 4.144531 L 30 35.195312 L 11.867188 4.144531 Z M 0.0273438 4.144531 " fill-opacity="1" fill-rule="nonzero"/></g><g clip-path="url(#f5cf87015d)"><path fill="#35495e" d="M 11.867188 4.144531 L 30 35.34375 L 47.984375 4.144531 L 36.894531 4.144531 L 30 16.144531 L 22.957031 4.144531 Z M 11.867188 4.144531 " fill-opacity="1" fill-rule="nonzero"/></g></svg>