<svg xmlns="http://www.w3.org/2000/svg" xmlns:xlink="http://www.w3.org/1999/xlink" width="80" zoomAndPan="magnify" viewBox="0 0 60 60" height="80" preserveAspectRatio="xMidYMid meet" version="1.0"><defs><clipPath id="6fafcc9580"><path d="M 3.710938 0 L 56.210938 0 L 56.210938 60 L 3.710938 60 Z M 3.710938 0 " clip-rule="nonzero"/></clipPath></defs><g clip-path="url(#6fafcc9580)"><path fill="#e44d26" d="M 8.476562 53.867188 L 3.695312 0.175781 L 56.222656 0.175781 L 51.4375 53.859375 L 29.925781 59.828125 Z M 8.476562 53.867188 " fill-opacity="1" fill-rule="nonzero"/></g><path fill="#f16529" d="M 47.34375 50.4375 L 51.433594 4.566406 L 29.960938 4.566406 L 29.960938 55.265625 Z M 47.34375 50.4375 " fill-opacity="1" fill-rule="nonzero"/><path fill="#ebebeb" d="M 29.9375 11.148438 L 13.46875 11.148438 L 15.242188 31.0625 L 29.960938 31.0625 L 29.960938 24.476562 L 21.257812 24.476562 L 20.65625 17.734375 L 29.960938 17.734375 L 29.960938 11.148438 Z M 29.960938 41.558594 L 29.929688 41.566406 L 22.605469 39.585938 L 22.140625 34.335938 L 15.535156 34.335938 L 16.457031 44.671875 L 29.929688 48.402344 L 29.960938 48.390625 Z M 29.960938 41.558594 " fill-opacity="1" fill-rule="nonzero"/><path fill="#ffffff" d="M 29.9375 31.0625 L 38.035156 31.0625 L 37.289062 39.601562 L 29.957031 41.582031 L 29.957031 48.433594 L 43.4375 44.691406 L 45.242188 24.472656 L 29.960938 24.472656 Z M 46.253906 12.917969 L 46.410156 11.148438 L 29.933594 11.148438 L 29.933594 17.734375 L 45.816406 17.734375 L 45.949219 16.253906 Z M 46.253906 12.917969 " fill-opacity="1" fill-rule="nonzero"/></svg>