<svg xmlns="http://www.w3.org/2000/svg" xmlns:xlink="http://www.w3.org/1999/xlink" width="80" zoomAndPan="magnify" viewBox="0 0 60 60" height="80" preserveAspectRatio="xMidYMid meet" version="1.0"><rect x="-6" width="72" fill="#007acc" y="-6" height="72" fill-opacity="1"/><path fill="#ffffff" d="M 13.265625 30.195312 L 13.246094 32.65625 L 21.054688 32.65625 L 21.054688 54.847656 L 26.582031 54.847656 L 26.582031 32.65625 L 34.390625 32.65625 L 34.390625 30.246094 C 34.390625 28.914062 34.359375 27.796875 34.324219 27.769531 C 34.292969 27.730469 29.542969 27.710938 23.78125 27.722656 L 13.292969 27.75 Z M 13.265625 30.195312 " fill-opacity="1" fill-rule="nonzero"/><path fill="#ffffff" d="M 48.414062 27.683594 C 49.9375 28.0625 51.101562 28.738281 52.167969 29.84375 C 52.71875 30.433594 53.539062 31.507812 53.605469 31.765625 C 53.621094 31.84375 51.015625 33.59375 49.433594 34.578125 C 49.375 34.613281 49.148438 34.367188 48.890625 33.988281 C 48.121094 32.863281 47.308594 32.375 46.070312 32.292969 C 44.253906 32.167969 43.082031 33.121094 43.089844 34.710938 C 43.089844 35.175781 43.15625 35.453125 43.347656 35.832031 C 43.75 36.664062 44.492188 37.15625 46.824219 38.167969 C 51.121094 40.015625 52.957031 41.234375 54.101562 42.96875 C 55.375 44.902344 55.660156 47.984375 54.792969 50.28125 C 53.84375 52.777344 51.480469 54.472656 48.15625 55.035156 C 47.128906 55.214844 44.691406 55.1875 43.585938 54.988281 C 41.175781 54.558594 38.890625 53.367188 37.480469 51.804688 C 36.929688 51.195312 35.851562 49.605469 35.917969 49.492188 C 35.949219 49.453125 36.195312 49.300781 36.472656 49.140625 C 36.738281 48.988281 37.75 48.40625 38.699219 47.851562 L 40.421875 46.855469 L 40.785156 47.386719 C 41.289062 48.15625 42.394531 49.214844 43.0625 49.566406 C 44.976562 50.574219 47.605469 50.433594 48.898438 49.273438 C 49.453125 48.765625 49.679688 48.242188 49.679688 47.472656 C 49.679688 46.777344 49.597656 46.472656 49.234375 45.949219 C 48.765625 45.28125 47.816406 44.71875 45.109375 43.550781 C 42.015625 42.214844 40.679688 41.386719 39.460938 40.070312 C 38.757812 39.308594 38.089844 38.089844 37.8125 37.070312 C 37.585938 36.226562 37.527344 34.101562 37.707031 33.242188 C 38.347656 30.253906 40.605469 28.167969 43.859375 27.546875 C 44.917969 27.347656 47.375 27.425781 48.414062 27.683594 Z M 48.414062 27.683594 " fill-opacity="1" fill-rule="nonzero"/></svg>