<svg xmlns="http://www.w3.org/2000/svg" xmlns:xlink="http://www.w3.org/1999/xlink" width="80" zoomAndPan="magnify" viewBox="0 0 60 60" height="80" preserveAspectRatio="xMidYMid meet" version="1.0"><path fill="#5271ff" d="M 60 30 C 60 46.566406 46.566406 60 30 60 C 13.433594 60 0 46.566406 0 30 C 0 13.433594 13.433594 0 30 0 C 46.566406 0 60 13.433594 60 30 " fill-opacity="1" fill-rule="nonzero"/><path fill="#ffffff" d="M 20.542969 33.363281 C 19.804688 34.347656 18.847656 35.410156 17.582031 36.21875 C 16.339844 37 14.953125 37.632812 13.308594 37.632812 C 11.792969 37.632812 10.507812 36.824219 9.792969 36.167969 C 8.738281 35.179688 8.179688 33.714844 8.015625 32.375 C 7.496094 28.15625 10.078125 22.625 14.074219 20.199219 C 14.992188 19.640625 16.019531 19.367188 16.953125 19.367188 C 18.875 19.367188 20.308594 20.734375 20.507812 22.367188 C 20.6875 23.839844 20.097656 25.113281 18.457031 25.9375 C 17.621094 26.359375 17.203125 26.339844 17.074219 26.136719 C 16.984375 26.003906 17.035156 25.777344 17.203125 25.636719 C 18.746094 24.351562 18.777344 23.300781 18.59375 21.816406 C 18.476562 20.859375 17.84375 20.25 17.136719 20.25 C 14.105469 20.25 9.757812 27.019531 10.363281 31.949219 C 10.597656 33.867188 11.78125 36.089844 14.207031 36.089844 C 15.015625 36.089844 15.871094 35.863281 16.632812 35.484375 C 18.324219 34.625 19.078125 33.992188 20.09375 32.605469 C 20.226562 32.425781 20.351562 32.222656 20.503906 32.023438 C 20.609375 31.847656 20.753906 31.796875 20.878906 31.796875 C 21.03125 31.796875 21.171875 31.921875 21.199219 32.125 C 21.21875 32.273438 21.167969 32.503906 20.996094 32.730469 C 20.84375 32.933594 20.695312 33.160156 20.542969 33.363281 " fill-opacity="1" fill-rule="nonzero"/><path fill="#ffffff" d="M 25.125 35.835938 C 24.367188 35.835938 23.9375 35.433594 23.789062 34.828125 C 23.285156 35.484375 22.625 35.835938 21.917969 35.835938 C 20.753906 35.835938 19.648438 34.851562 19.484375 33.539062 C 19.203125 31.238281 21.1875 28.257812 24.167969 28.257812 C 25.433594 28.257812 26.480469 28.765625 26.605469 29.773438 C 26.757812 31.039062 25.679688 31.289062 25.273438 31.289062 C 24.921875 31.289062 24.351562 31.191406 24.3125 30.859375 C 24.269531 30.507812 25.078125 30.707031 24.976562 29.898438 C 24.914062 29.394531 24.390625 29.21875 23.882812 29.21875 C 22.0625 29.21875 21.058594 31.746094 21.253906 33.3125 C 21.339844 34.019531 21.703125 34.726562 22.359375 34.726562 C 22.890625 34.726562 23.65625 33.96875 23.949219 32.855469 C 24.136719 32.097656 24.855469 31.59375 25.386719 31.59375 C 25.664062 31.59375 25.855469 31.71875 25.890625 31.996094 C 25.902344 32.097656 25.894531 32.222656 25.863281 32.375 C 25.800781 32.707031 25.546875 33.796875 25.558594 34.023438 C 25.570312 34.222656 25.683594 34.492188 26.027344 34.492188 C 26.40625 34.492188 28.195312 33.453125 29.234375 32.035156 C 29.320312 31.910156 29.484375 31.832031 29.636719 31.832031 C 29.789062 31.832031 29.925781 31.910156 29.945312 32.085938 C 29.96875 32.265625 29.894531 32.492188 29.679688 32.792969 C 28.492188 34.4375 26.007812 35.835938 25.125 35.835938 " fill-opacity="1" fill-rule="nonzero"/><path fill="#ffffff" d="M 50.207031 34.980469 C 50.296875 35.710938 50.632812 36.191406 50.945312 36.46875 C 51.058594 36.570312 51.125 36.695312 51.136719 36.773438 C 51.160156 36.976562 51.003906 37.152344 50.75 37.152344 C 50.675781 37.152344 50.574219 37.152344 50.492188 37.101562 C 49.191406 36.570312 48.652344 35.6875 48.496094 34.851562 C 47.996094 35.484375 47.328125 35.835938 46.648438 35.835938 C 45.488281 35.835938 44.351562 34.828125 44.191406 33.511719 C 43.910156 31.238281 45.96875 28.257812 48.902344 28.257812 C 50.140625 28.257812 51.207031 28.738281 51.332031 29.75 C 51.492188 31.039062 50.386719 31.289062 50.007812 31.289062 C 49.628906 31.289062 49.058594 31.191406 49.019531 30.859375 C 48.980469 30.53125 49.808594 30.707031 49.710938 29.925781 C 49.652344 29.421875 49.121094 29.21875 48.613281 29.21875 C 46.921875 29.21875 45.757812 31.464844 45.980469 33.285156 C 46.070312 34.019531 46.410156 34.726562 47.066406 34.726562 C 47.597656 34.726562 48.390625 33.96875 48.683594 32.855469 C 48.871094 32.125 49.589844 31.59375 50.121094 31.59375 C 50.371094 31.59375 50.589844 31.71875 50.625 32.023438 C 50.644531 32.175781 50.585938 32.503906 50.300781 33.691406 C 50.1875 34.195312 50.164062 34.625 50.207031 34.980469 " fill-opacity="1" fill-rule="nonzero"/><path fill="#ffffff" d="M 34.480469 34.519531 C 34.886719 34.519531 36.203125 34.015625 37.242188 32.601562 C 37.351562 32.472656 37.496094 32.398438 37.644531 32.398438 C 37.820312 32.398438 37.957031 32.472656 37.984375 32.675781 C 38 32.828125 37.902344 33.054688 37.6875 33.359375 C 36.5 35 34.496094 35.835938 33.609375 35.835938 C 32.699219 35.835938 32.203125 35.277344 32.101562 34.445312 C 32.066406 34.167969 32.078125 33.839844 32.132812 33.484375 C 32.4375 31.613281 33.125 30.453125 33.082031 30.097656 C 33.070312 30 33.015625 29.949219 32.9375 29.949219 C 32.355469 29.949219 30.316406 32.046875 30.003906 33.433594 L 29.761719 34.546875 C 29.605469 35.328125 28.835938 35.835938 28.304688 35.835938 C 28.050781 35.835938 27.859375 35.707031 27.824219 35.429688 C 27.8125 35.328125 27.820312 35.203125 27.855469 35.050781 C 27.855469 35.050781 28.863281 29.871094 28.910156 29.625 C 29.019531 29.015625 29.242188 28.386719 30.476562 28.386719 C 30.730469 28.386719 30.921875 28.515625 30.960938 28.816406 C 30.972656 28.917969 30.964844 29.042969 30.933594 29.195312 L 30.585938 30.757812 C 31.671875 29.316406 33.359375 28.253906 34.371094 28.253906 C 34.800781 28.253906 35.132812 28.484375 35.1875 28.9375 C 35.21875 29.191406 35.144531 29.617188 34.976562 30.097656 C 34.617188 31.085938 34.214844 32.5625 33.945312 33.839844 C 33.886719 34.109375 33.984375 34.519531 34.480469 34.519531 " fill-opacity="1" fill-rule="nonzero"/><path fill="#ffffff" d="M 41.390625 28.484375 C 41.390625 29.191406 41.746094 29.925781 42.199219 30.40625 C 42.375 29.925781 42.476562 29.445312 42.476562 28.964844 C 42.476562 28.054688 42.125 27.652344 41.847656 27.652344 C 41.515625 27.652344 41.390625 28.105469 41.390625 28.484375 Z M 42.933594 32.273438 C 42.78125 32.273438 42.65625 32.273438 42.503906 32.25 C 41.367188 33.890625 40.179688 35.03125 39.269531 35.535156 C 38.890625 35.738281 38.535156 35.835938 38.285156 35.835938 C 38.082031 35.835938 37.855469 35.789062 37.753906 35.609375 C 37.347656 34.929688 37.171875 33.539062 37.171875 32.097656 C 37.171875 31.039062 37.246094 30.179688 37.449219 29.546875 C 37.652344 28.890625 38.484375 28.257812 39.042969 28.257812 C 39.320312 28.257812 39.523438 28.410156 39.523438 28.714844 C 39.523438 28.8125 39.496094 28.941406 39.445312 29.066406 C 39.066406 30.179688 38.863281 31.214844 38.863281 32.25 C 38.863281 32.832031 38.992188 33.765625 39.117188 34.246094 C 39.144531 34.347656 39.167969 34.449219 39.269531 34.449219 C 39.445312 34.449219 40.632812 33.285156 41.492188 31.871094 C 40.734375 31.390625 40.304688 30.507812 40.304688 29.421875 C 40.304688 27.601562 41.390625 26.667969 42.453125 26.667969 C 43.285156 26.667969 44.042969 27.273438 44.042969 28.484375 C 44.042969 29.242188 43.742188 30.101562 43.3125 30.9375 C 43.3125 30.9375 43.488281 30.960938 43.5625 30.960938 C 44.222656 30.960938 44.726562 30.65625 45.003906 30.332031 C 45.207031 30.101562 45.382812 29.949219 45.5625 29.949219 C 45.6875 29.949219 45.738281 30.050781 45.738281 30.179688 C 45.738281 30.253906 45.710938 30.382812 45.636719 30.507812 C 45.03125 31.59375 43.867188 32.273438 42.933594 32.273438 " fill-opacity="1" fill-rule="nonzero"/></svg>