<svg xmlns="http://www.w3.org/2000/svg" xmlns:xlink="http://www.w3.org/1999/xlink" width="80" zoomAndPan="magnify" viewBox="0 0 60 60" height="80" preserveAspectRatio="xMidYMid meet" version="1.0"><path fill="#00678c" d="M 55.34375 46.824219 C 52.132812 46.734375 49.636719 47.066406 47.550781 47.945312 C 46.949219 48.183594 45.980469 48.183594 45.902344 48.941406 C 46.222656 49.261719 46.261719 49.78125 46.542969 50.21875 C 47.027344 51.019531 47.871094 52.097656 48.632812 52.65625 L 51.207031 54.492188 C 52.773438 55.449219 54.539062 56.007812 56.066406 56.96875 C 56.949219 57.527344 57.832031 58.246094 58.71875 58.84375 C 59.167969 59.164062 59.441406 59.683594 60.003906 59.882812 L 60.003906 59.761719 C 59.722656 59.402344 59.640625 58.886719 59.363281 58.484375 L 58.15625 57.328125 C 56.992188 55.769531 55.542969 54.410156 53.976562 53.292969 C 52.691406 52.414062 49.878906 51.21875 49.355469 49.742188 L 49.277344 49.652344 C 50.160156 49.5625 51.207031 49.25 52.050781 49.011719 C 53.417969 48.652344 54.660156 48.734375 56.066406 48.375 L 57.996094 47.816406 L 57.996094 47.457031 C 57.273438 46.738281 56.75 45.78125 55.988281 45.101562 C 53.9375 43.34375 51.6875 41.625 49.355469 40.191406 C 48.113281 39.390625 46.503906 38.871094 45.179688 38.195312 C 44.695312 37.953125 43.894531 37.835938 43.613281 37.433594 C 42.886719 36.558594 42.484375 35.398438 41.964844 34.359375 L 38.667969 27.414062 C 37.945312 25.855469 37.503906 24.296875 36.621094 22.859375 C 32.480469 16.074219 27.980469 11.960938 21.070312 7.925781 C 19.585938 7.089844 17.816406 6.726562 15.9375 6.289062 L 12.925781 6.128906 C 12.28125 5.847656 11.636719 5.089844 11.074219 4.730469 C 8.785156 3.292969 2.878906 0.179688 1.191406 4.28125 C 0.105469 6.878906 2.796875 9.433594 3.710938 10.75 C 4.394531 11.667969 5.277344 12.707031 5.761719 13.746094 C 6.03125 14.425781 6.121094 15.144531 6.40625 15.863281 C 7.046875 17.617188 7.648438 19.578125 8.492188 21.214844 C 8.945312 22.050781 9.417969 22.933594 9.980469 23.691406 C 10.300781 24.136719 10.863281 24.328125 10.984375 25.046875 C 10.421875 25.847656 10.382812 27.042969 10.0625 28.042969 C 8.613281 32.554688 9.175781 38.144531 11.226562 41.46875 C 11.867188 42.464844 13.386719 44.664062 15.445312 43.824219 C 17.253906 43.105469 16.851562 40.828125 17.371094 38.832031 C 17.492188 38.351562 17.414062 38.035156 17.652344 37.714844 L 17.652344 37.804688 L 19.300781 41.117188 C 20.546875 43.074219 22.71875 45.109375 24.523438 46.46875 C 25.488281 47.1875 26.25 48.425781 27.457031 48.863281 L 27.457031 48.742188 L 27.378906 48.742188 C 27.136719 48.386719 26.773438 48.222656 26.453125 47.945312 C 25.730469 47.226562 24.925781 46.347656 24.363281 45.550781 C 22.675781 43.3125 21.191406 40.835938 19.863281 38.28125 C 19.21875 37.042969 18.65625 35.6875 18.136719 34.449219 C 17.894531 33.96875 17.894531 33.25 17.492188 33.011719 C 16.890625 33.890625 16.007812 34.648438 15.5625 35.726562 C 14.800781 37.445312 14.71875 39.558594 14.4375 41.757812 C 14.277344 41.796875 14.347656 41.757812 14.277344 41.847656 C 12.992188 41.527344 12.550781 40.207031 12.066406 39.089844 C 10.863281 36.257812 10.660156 31.703125 11.707031 28.429688 C 11.988281 27.589844 13.195312 24.957031 12.710938 24.15625 C 12.46875 23.398438 11.667969 22.960938 11.222656 22.359375 C 10.703125 21.601562 10.140625 20.644531 9.777344 19.804688 C 8.816406 17.566406 8.332031 15.09375 7.289062 12.855469 C 6.804688 11.820312 5.960938 10.742188 5.277344 9.78125 C 4.515625 8.703125 3.671875 7.945312 3.070312 6.667969 C 2.867188 6.222656 2.585938 5.511719 2.910156 5.03125 C 2.988281 4.710938 3.148438 4.582031 3.46875 4.511719 C 3.992188 4.0625 5.480469 4.632812 6.003906 4.871094 C 7.488281 5.46875 8.734375 6.027344 9.980469 6.867188 C 10.542969 7.265625 11.144531 8.023438 11.867188 8.222656 L 12.714844 8.222656 C 14 8.503906 15.445312 8.3125 16.648438 8.671875 C 18.777344 9.351562 20.707031 10.347656 22.433594 11.429688 C 27.699219 14.742188 32.039062 19.453125 34.96875 25.085938 C 35.453125 26.003906 35.652344 26.839844 36.097656 27.800781 C 36.941406 29.757812 37.984375 31.753906 38.828125 33.671875 C 39.671875 35.546875 40.476562 37.464844 41.679688 39.023438 C 42.285156 39.859375 44.695312 40.300781 45.777344 40.738281 C 46.582031 41.097656 47.828125 41.417969 48.550781 41.859375 C 49.917969 42.695312 51.28125 43.65625 52.566406 44.574219 C 53.210938 45.050781 55.21875 46.050781 55.339844 46.847656 Z M 14.371094 12.125 C 13.8125 12.121094 13.261719 12.1875 12.722656 12.324219 L 12.722656 12.414062 L 12.804688 12.414062 C 13.125 13.054688 13.6875 13.492188 14.089844 14.054688 L 15.015625 15.96875 L 15.09375 15.878906 C 15.65625 15.480469 15.9375 14.84375 15.9375 13.882812 C 15.695312 13.605469 15.65625 13.324219 15.457031 13.046875 C 15.214844 12.648438 14.691406 12.445312 14.371094 12.128906 Z M 14.371094 12.125 " fill-opacity="1" fill-rule="evenodd"/></svg>