<svg xmlns="http://www.w3.org/2000/svg" xmlns:xlink="http://www.w3.org/1999/xlink" width="80" zoomAndPan="magnify" viewBox="0 0 60 60" height="80" preserveAspectRatio="xMidYMid meet" version="1.0"><defs><clipPath id="9de7f09020"><path d="M 2.78125 0 L 57.53125 0 L 57.53125 60 L 2.78125 60 Z M 2.78125 0 " clip-rule="nonzero"/></clipPath></defs><g clip-path="url(#9de7f09020)"><path fill="#ffde59" d="M 27.628906 0.796875 C 29.132812 -0.046875 31.050781 -0.0507812 32.519531 0.796875 L 54.972656 13.382812 C 56.378906 14.167969 57.316406 15.726562 57.304688 17.335938 L 57.304688 42.566406 C 57.3125 44.246094 56.28125 45.835938 54.800781 46.605469 L 32.464844 59.132812 C 31.6875 59.558594 30.855469 59.761719 29.964844 59.738281 C 29.078125 59.710938 28.257812 59.464844 27.503906 58.996094 L 20.800781 55.144531 C 20.34375 54.875 19.832031 54.660156 19.507812 54.21875 C 19.792969 53.839844 20.300781 53.789062 20.714844 53.621094 C 21.648438 53.328125 22.5 52.875 23.359375 52.394531 C 23.574219 52.246094 23.839844 52.304688 24.046875 52.4375 L 29.761719 55.722656 C 30.171875 55.957031 30.582031 55.648438 30.933594 55.453125 L 52.863281 43.148438 C 53.132812 43.015625 53.285156 42.734375 53.261719 42.4375 L 53.261719 17.445312 C 53.292969 17.109375 53.097656 16.804688 52.792969 16.667969 L 30.515625 4.195312 C 30.222656 3.996094 29.929688 3.992188 29.640625 4.191406 L 7.394531 16.691406 C 7.09375 16.828125 6.886719 17.128906 6.921875 17.46875 L 6.921875 42.457031 C 6.898438 42.753906 7.054688 43.03125 7.328125 43.160156 L 13.273438 46.496094 C 14.390625 47.09375 15.757812 47.429688 16.988281 46.992188 C 17.539062 46.785156 17.984375 46.441406 18.316406 45.957031 C 18.652344 45.476562 18.816406 44.941406 18.816406 44.355469 L 18.820312 19.515625 C 18.792969 19.148438 19.144531 18.84375 19.503906 18.878906 L 22.359375 18.878906 C 22.738281 18.871094 23.03125 19.265625 22.980469 19.636719 L 22.976562 44.636719 C 22.976562 46.855469 22.058594 49.269531 19.992188 50.359375 C 17.449219 51.667969 14.300781 51.394531 11.785156 50.136719 L 5.394531 46.621094 C 3.890625 45.875 2.878906 44.261719 2.890625 42.585938 L 2.890625 17.351562 C 2.894531 16.515625 3.113281 15.742188 3.546875 15.023438 C 3.976562 14.308594 4.5625 13.75 5.300781 13.347656 Z M 34.105469 18.289062 C 37.351562 18.101562 40.828125 18.167969 43.75 19.757812 C 46.011719 20.976562 47.265625 23.53125 47.304688 26.035156 C 47.242188 26.371094 46.890625 26.558594 46.566406 26.53125 C 45.625 26.53125 44.683594 26.546875 43.738281 26.527344 C 43.335938 26.542969 43.105469 26.175781 43.054688 25.824219 C 42.785156 24.628906 42.128906 23.445312 40.996094 22.867188 C 39.261719 22 37.246094 22.042969 35.347656 22.0625 C 33.964844 22.136719 32.480469 22.257812 31.308594 23.0625 C 30.40625 23.675781 30.132812 24.933594 30.457031 25.910156 C 30.757812 26.625 31.589844 26.855469 32.269531 27.066406 C 36.183594 28.085938 40.328125 28 44.167969 29.324219 C 45.757812 29.871094 47.3125 30.929688 47.855469 32.585938 C 48.566406 34.800781 48.257812 37.453125 46.671875 39.230469 C 45.386719 40.695312 43.515625 41.476562 41.644531 41.925781 C 39.15625 42.476562 36.578125 42.492188 34.050781 42.246094 C 31.679688 41.976562 29.207031 41.355469 27.375 39.746094 C 25.804688 38.394531 25.042969 36.285156 25.117188 34.253906 C 25.136719 33.910156 25.480469 33.667969 25.8125 33.695312 L 28.632812 33.695312 C 29.015625 33.671875 29.292969 33.996094 29.3125 34.351562 C 29.484375 35.472656 29.917969 36.6875 30.917969 37.34375 C 32.84375 38.578125 35.265625 38.492188 37.472656 38.527344 C 39.300781 38.449219 41.355469 38.425781 42.847656 37.21875 C 43.636719 36.535156 43.871094 35.390625 43.65625 34.402344 C 43.425781 33.566406 42.527344 33.179688 41.777344 32.90625 C 37.914062 31.691406 33.722656 32.132812 29.894531 30.757812 C 28.34375 30.210938 26.839844 29.179688 26.246094 27.59375 C 25.410156 25.347656 25.792969 22.570312 27.546875 20.851562 C 29.238281 19.140625 31.722656 18.480469 34.070312 18.246094 Z M 34.105469 18.289062 " fill-opacity="1" fill-rule="nonzero"/></g></svg>