<svg xmlns="http://www.w3.org/2000/svg" xmlns:xlink="http://www.w3.org/1999/xlink" width="80" zoomAndPan="magnify" viewBox="0 0 60 60" height="80" preserveAspectRatio="xMidYMid meet" version="1.0"><defs><clipPath id="26ec7e045d"><path d="M 0 9.382812 L 60 9.382812 L 60 50.632812 L 0 50.632812 Z M 0 9.382812 " clip-rule="nonzero"/></clipPath></defs><g clip-path="url(#26ec7e045d)"><path fill="#ef533f" d="M 37.210938 50.402344 C 36.863281 50.402344 36.597656 50.253906 36.417969 49.953125 L 29.441406 38.308594 L 16.390625 41.855469 C 16.1875 41.90625 15.988281 41.886719 15.796875 41.800781 C 15.605469 41.714844 15.460938 41.578125 15.359375 41.394531 L 0.109375 12.710938 C 0.0390625 12.578125 0 12.4375 0 12.285156 C 0 12.132812 0.03125 11.992188 0.101562 11.855469 C 0.167969 11.722656 0.265625 11.609375 0.390625 11.523438 C 0.511719 11.433594 0.648438 11.382812 0.800781 11.363281 L 13.746094 9.621094 C 13.929688 9.59375 14.105469 9.621094 14.273438 9.699219 C 14.4375 9.78125 14.570312 9.898438 14.664062 10.058594 L 30.296875 36.160156 L 48.460938 31.21875 L 42.40625 22.65625 C 42.316406 22.535156 42.261719 22.398438 42.238281 22.246094 C 42.21875 22.09375 42.234375 21.949219 42.285156 21.804688 C 42.335938 21.660156 42.417969 21.539062 42.53125 21.4375 C 42.640625 21.332031 42.773438 21.261719 42.917969 21.222656 L 51.417969 19.214844 C 51.796875 19.125 52.105469 19.230469 52.351562 19.535156 L 59.707031 28.710938 C 59.800781 28.832031 59.867188 28.972656 59.894531 29.125 C 59.921875 29.277344 59.910156 29.429688 59.863281 29.578125 C 59.816406 29.726562 59.734375 29.851562 59.621094 29.960938 C 59.507812 30.066406 59.375 30.140625 59.226562 30.179688 L 51.5 32.289062 L 58.261719 41.824219 C 58.347656 41.941406 58.398438 42.070312 58.421875 42.214844 C 58.445312 42.359375 58.433594 42.5 58.390625 42.636719 C 58.347656 42.777344 58.273438 42.898438 58.171875 43 C 58.070312 43.105469 57.953125 43.183594 57.8125 43.230469 L 37.507812 50.335938 C 37.414062 50.371094 37.3125 50.390625 37.214844 50.394531 Z M 31.289062 37.804688 L 37.613281 48.355469 L 56.046875 41.898438 L 49.609375 32.820312 Z M 2.359375 13 L 16.628906 39.878906 L 28.476562 36.664062 L 13.390625 11.53125 Z M 44.714844 22.710938 L 50.378906 30.703125 L 57.425781 28.785156 L 51.296875 21.148438 Z M 44.714844 22.710938 " fill-opacity="1" fill-rule="nonzero"/></g></svg>