<svg xmlns="http://www.w3.org/2000/svg" xmlns:xlink="http://www.w3.org/1999/xlink" width="80" zoomAndPan="magnify" viewBox="0 0 60 60" height="80" preserveAspectRatio="xMidYMid meet" version="1.0"><defs><clipPath id="ab982181f6"><path d="M 3.148438 0 L 57.148438 0 L 57.148438 60 L 3.148438 60 Z M 3.148438 0 " clip-rule="nonzero"/></clipPath></defs><g clip-path="url(#ab982181f6)"><path fill="#0277bd" d="M 57.144531 0 L 3.15625 0 L 7.917969 53.683594 L 30.148438 60 L 52.378906 53.683594 Z M 57.144531 0 " fill-opacity="1" fill-rule="nonzero"/></g><path fill="#039be5" d="M 30.148438 4.738281 L 30.148438 55.105469 L 47.933594 50.050781 L 51.90625 4.738281 Z M 30.148438 4.738281 " fill-opacity="1" fill-rule="nonzero"/><path fill="#ffffff" d="M 44.601562 12.632812 L 30.148438 12.632812 L 30.148438 18.949219 L 37.929688 18.949219 L 37.453125 25.261719 L 30.148438 25.261719 L 30.148438 31.578125 L 37.136719 31.578125 L 36.660156 38.683594 L 30.148438 40.894531 L 30.148438 47.527344 L 42.695312 43.421875 L 43.804688 25.261719 Z M 44.601562 12.632812 " fill-opacity="1" fill-rule="nonzero"/><path fill="#eeeeee" d="M 30.148438 12.632812 L 30.148438 18.949219 L 16.019531 18.949219 L 15.542969 12.632812 Z M 22.84375 25.261719 L 23.164062 31.578125 L 30.148438 31.578125 L 30.148438 25.261719 Z M 23.480469 34.738281 L 17.128906 34.738281 L 17.605469 43.421875 L 30.148438 47.527344 L 30.148438 40.894531 L 23.640625 38.683594 Z M 23.480469 34.738281 " fill-opacity="1" fill-rule="nonzero"/></svg>