<svg xmlns="http://www.w3.org/2000/svg" xmlns:xlink="http://www.w3.org/1999/xlink" width="80" zoomAndPan="magnify" viewBox="0 0 60 60" height="80" preserveAspectRatio="xMidYMid meet" version="1.0"><defs><clipPath id="c01b0fa41e"><path d="M 42 0.488281 L 60 0.488281 L 60 18 L 42 18 Z M 42 0.488281 " clip-rule="nonzero"/></clipPath><clipPath id="a786edc0f5"><path d="M 42 42 L 60 42 L 60 59.738281 L 42 59.738281 Z M 42 42 " clip-rule="nonzero"/></clipPath></defs><path fill="#f2f2f2" d="M 3 37.640625 L 11 37.640625 L 11 40.652344 L 9 40.652344 C 8.449219 40.652344 8 41.105469 8 41.65625 C 8 42.210938 8.449219 42.664062 9 42.664062 L 19 42.664062 C 19.550781 42.664062 20 42.210938 20 41.65625 C 20 41.105469 19.550781 40.652344 19 40.652344 L 17 40.652344 L 17 37.640625 L 25 37.640625 C 26.65625 37.640625 28 36.292969 28 34.628906 L 28 20.574219 C 28 18.914062 26.65625 17.5625 25 17.5625 L 3 17.5625 C 1.34375 17.5625 0 18.914062 0 20.574219 L 0 34.628906 C 0 36.292969 1.34375 37.640625 3 37.640625 Z M 15 40.652344 L 13 40.652344 L 13 37.640625 L 15 37.640625 Z M 2 20.574219 C 2 20.019531 2.449219 19.570312 3 19.570312 L 25 19.570312 C 25.550781 19.570312 26 20.019531 26 20.574219 L 26 34.628906 C 26 35.183594 25.550781 35.632812 25 35.632812 L 3 35.632812 C 2.449219 35.632812 2 35.183594 2 34.628906 Z M 2 20.574219 " fill-opacity="1" fill-rule="nonzero"/><g clip-path="url(#c01b0fa41e)"><path fill="#f2f2f2" d="M 58 0.496094 L 44 0.496094 C 42.898438 0.496094 42 1.394531 42 2.503906 L 42 11.539062 C 42 12.644531 42.898438 13.546875 44 13.546875 L 50 13.546875 L 50 15.554688 L 48 15.554688 C 47.449219 15.554688 47 16.003906 47 16.558594 C 47 17.113281 47.449219 17.5625 48 17.5625 L 54 17.5625 C 54.550781 17.5625 55 17.113281 55 16.558594 C 55 16.003906 54.550781 15.554688 54 15.554688 L 52 15.554688 L 52 13.546875 L 58 13.546875 C 59.101562 13.546875 60 12.644531 60 11.539062 L 60 2.503906 C 60 1.394531 59.101562 0.496094 58 0.496094 Z M 44 11.539062 L 44 2.503906 L 58 2.503906 L 58 11.539062 Z M 44 11.539062 " fill-opacity="1" fill-rule="nonzero"/></g><path fill="#f2f2f2" d="M 58 21.578125 L 44 21.578125 C 42.898438 21.578125 42 22.480469 42 23.585938 L 42 32.621094 C 42 33.730469 42.898438 34.628906 44 34.628906 L 50 34.628906 L 50 36.636719 L 48 36.636719 C 47.449219 36.636719 47 37.085938 47 37.640625 C 47 38.195312 47.449219 38.644531 48 38.644531 L 54 38.644531 C 54.550781 38.644531 55 38.195312 55 37.640625 C 55 37.085938 54.550781 36.636719 54 36.636719 L 52 36.636719 L 52 34.628906 L 58 34.628906 C 59.101562 34.628906 60 33.730469 60 32.621094 L 60 23.585938 C 60 22.480469 59.101562 21.578125 58 21.578125 Z M 44 32.621094 L 44 23.585938 L 58 23.585938 L 58 32.621094 Z M 44 32.621094 " fill-opacity="1" fill-rule="nonzero"/><g clip-path="url(#a786edc0f5)"><path fill="#f2f2f2" d="M 58 42.664062 L 44 42.664062 C 42.898438 42.664062 42 43.5625 42 44.671875 L 42 53.707031 C 42 54.8125 42.898438 55.714844 44 55.714844 L 50 55.714844 L 50 57.722656 L 48 57.722656 C 47.449219 57.722656 47 58.171875 47 58.726562 C 47 59.28125 47.449219 59.730469 48 59.730469 L 54 59.730469 C 54.550781 59.730469 55 59.28125 55 58.726562 C 55 58.171875 54.550781 57.722656 54 57.722656 L 52 57.722656 L 52 55.714844 L 58 55.714844 C 59.101562 55.714844 60 54.8125 60 53.707031 L 60 44.671875 C 60 43.5625 59.101562 42.664062 58 42.664062 Z M 44 53.707031 L 44 44.671875 L 58 44.671875 L 58 53.707031 Z M 44 53.707031 " fill-opacity="1" fill-rule="nonzero"/></g><path fill="#f2f2f2" d="M 39 8.527344 C 39.550781 8.527344 40 8.078125 40 7.523438 C 40 6.96875 39.550781 6.519531 39 6.519531 L 36 6.519531 C 34.898438 6.519531 34 7.417969 34 8.527344 L 34 27.601562 L 31 27.601562 C 30.449219 27.601562 30 28.050781 30 28.605469 C 30 29.160156 30.449219 29.609375 31 29.609375 L 34 29.609375 L 34 48.6875 C 34 49.792969 34.898438 50.695312 36 50.695312 L 39 50.695312 C 39.550781 50.695312 40 50.246094 40 49.691406 C 40 49.136719 39.550781 48.6875 39 48.6875 L 36 48.6875 L 36 29.609375 L 39 29.609375 C 39.550781 29.609375 40 29.160156 40 28.605469 C 40 28.050781 39.550781 27.601562 39 27.601562 L 36 27.601562 L 36 8.527344 Z M 39 8.527344 " fill-opacity="1" fill-rule="nonzero"/></svg>