<svg xmlns="http://www.w3.org/2000/svg" xmlns:xlink="http://www.w3.org/1999/xlink" width="80" zoomAndPan="magnify" viewBox="0 0 60 60" height="80" preserveAspectRatio="xMidYMid meet" version="1.0"><defs><clipPath id="6e592e816e"><path d="M 0 14.398438 L 60 14.398438 L 60 45.898438 L 0 45.898438 Z M 0 14.398438 " clip-rule="nonzero"/></clipPath><clipPath id="6e33d4046c"><path d="M 0 30.15625 C 0 38.835938 13.433594 45.871094 30 45.871094 C 46.566406 45.871094 60 38.835938 60 30.15625 C 60 21.472656 46.566406 14.4375 30 14.4375 C 13.433594 14.4375 0 21.476562 0 30.15625 " clip-rule="nonzero"/></clipPath><clipPath id="5b46dd5dd3"><path d="M 0 30.15625 C 0 38.835938 13.433594 45.871094 30 45.871094 C 46.566406 45.871094 60 38.835938 60 30.15625 C 60 21.472656 46.566406 14.4375 30 14.4375 C 13.433594 14.4375 0 21.476562 0 30.15625 " clip-rule="nonzero"/></clipPath><radialGradient gradientTransform="matrix(1.002016, 0, 0, 0.997984, 18.01165, 19.963053)" gradientUnits="userSpaceOnUse" r="39.314188" cx="0" id="30edca00b7" cy="0" fx="0" fy="0"><stop stop-opacity="1" stop-color="rgb(68.199158%, 69.799805%, 83.499146%)" offset="0"/><stop stop-opacity="1" stop-color="rgb(68.199158%, 69.799805%, 83.499146%)" offset="0.25"/><stop stop-opacity="1" stop-color="rgb(68.164062%, 69.764709%, 83.473206%)" offset="0.296875"/><stop stop-opacity="1" stop-color="rgb(67.956543%, 69.555664%, 83.317566%)" offset="0.300781"/><stop stop-opacity="1" stop-color="rgb(67.608643%, 69.20929%, 83.059692%)" offset="0.304688"/><stop stop-opacity="1" stop-color="rgb(67.260742%, 68.861389%, 82.800293%)" offset="0.308594"/><stop stop-opacity="1" stop-color="rgb(66.914368%, 68.513489%, 82.542419%)" offset="0.3125"/><stop stop-opacity="1" stop-color="rgb(66.566467%, 68.167114%, 82.28302%)" offset="0.316406"/><stop stop-opacity="1" stop-color="rgb(66.220093%, 67.819214%, 82.025146%)" offset="0.320312"/><stop stop-opacity="1" stop-color="rgb(65.872192%, 67.472839%, 81.765747%)" offset="0.324219"/><stop stop-opacity="1" stop-color="rgb(65.525818%, 67.124939%, 81.506348%)" offset="0.328125"/><stop stop-opacity="1" stop-color="rgb(65.177917%, 66.778564%, 81.248474%)" offset="0.332031"/><stop stop-opacity="1" stop-color="rgb(64.831543%, 66.430664%, 80.989075%)" offset="0.335938"/><stop stop-opacity="1" stop-color="rgb(64.483643%, 66.08429%, 80.731201%)" offset="0.339844"/><stop stop-opacity="1" stop-color="rgb(64.135742%, 65.736389%, 80.471802%)" offset="0.34375"/><stop stop-opacity="1" stop-color="rgb(63.789368%, 65.388489%, 80.213928%)" offset="0.347656"/><stop stop-opacity="1" stop-color="rgb(63.441467%, 65.042114%, 79.954529%)" offset="0.351562"/><stop stop-opacity="1" stop-color="rgb(63.095093%, 64.694214%, 79.696655%)" offset="0.355469"/><stop stop-opacity="1" stop-color="rgb(62.747192%, 64.347839%, 79.437256%)" offset="0.359375"/><stop stop-opacity="1" stop-color="rgb(62.400818%, 63.999939%, 79.179382%)" offset="0.363281"/><stop stop-opacity="1" stop-color="rgb(62.052917%, 63.653564%, 78.919983%)" offset="0.367188"/><stop stop-opacity="1" stop-color="rgb(61.706543%, 63.305664%, 78.662109%)" offset="0.371094"/><stop stop-opacity="1" stop-color="rgb(61.358643%, 62.95929%, 78.40271%)" offset="0.375"/><stop stop-opacity="1" stop-color="rgb(61.010742%, 62.611389%, 78.144836%)" offset="0.378906"/><stop stop-opacity="1" stop-color="rgb(60.664368%, 62.263489%, 77.885437%)" offset="0.382812"/><stop stop-opacity="1" stop-color="rgb(60.316467%, 61.917114%, 77.627563%)" offset="0.386719"/><stop stop-opacity="1" stop-color="rgb(59.970093%, 61.569214%, 77.368164%)" offset="0.390625"/><stop stop-opacity="1" stop-color="rgb(59.622192%, 61.222839%, 77.108765%)" offset="0.394531"/><stop stop-opacity="1" stop-color="rgb(59.275818%, 60.874939%, 76.850891%)" offset="0.398438"/><stop stop-opacity="1" stop-color="rgb(58.927917%, 60.528564%, 76.591492%)" offset="0.402344"/><stop stop-opacity="1" stop-color="rgb(58.581543%, 60.180664%, 76.333618%)" offset="0.40625"/><stop stop-opacity="1" stop-color="rgb(58.233643%, 59.83429%, 76.074219%)" offset="0.410156"/><stop stop-opacity="1" stop-color="rgb(57.885742%, 59.486389%, 75.816345%)" offset="0.414062"/><stop stop-opacity="1" stop-color="rgb(57.539368%, 59.138489%, 75.556946%)" offset="0.417969"/><stop stop-opacity="1" stop-color="rgb(57.191467%, 58.792114%, 75.299072%)" offset="0.421875"/><stop stop-opacity="1" stop-color="rgb(56.845093%, 58.444214%, 75.039673%)" offset="0.425781"/><stop stop-opacity="1" stop-color="rgb(56.497192%, 58.097839%, 74.781799%)" offset="0.429688"/><stop stop-opacity="1" stop-color="rgb(56.150818%, 57.749939%, 74.5224%)" offset="0.433594"/><stop stop-opacity="1" stop-color="rgb(55.802917%, 57.403564%, 74.264526%)" offset="0.4375"/><stop stop-opacity="1" stop-color="rgb(55.456543%, 57.055664%, 74.005127%)" offset="0.441406"/><stop stop-opacity="1" stop-color="rgb(55.108643%, 56.70929%, 73.747253%)" offset="0.445312"/><stop stop-opacity="1" stop-color="rgb(54.760742%, 56.361389%, 73.487854%)" offset="0.449219"/><stop stop-opacity="1" stop-color="rgb(54.414368%, 56.013489%, 73.22998%)" offset="0.453125"/><stop stop-opacity="1" stop-color="rgb(54.066467%, 55.667114%, 72.970581%)" offset="0.457031"/><stop stop-opacity="1" stop-color="rgb(53.720093%, 55.319214%, 72.711182%)" offset="0.460938"/><stop stop-opacity="1" stop-color="rgb(53.372192%, 54.972839%, 72.453308%)" offset="0.464844"/><stop stop-opacity="1" stop-color="rgb(53.025818%, 54.624939%, 72.193909%)" offset="0.46875"/><stop stop-opacity="1" stop-color="rgb(52.677917%, 54.278564%, 71.936035%)" offset="0.472656"/><stop stop-opacity="1" stop-color="rgb(52.331543%, 53.930664%, 71.676636%)" offset="0.476562"/><stop stop-opacity="1" stop-color="rgb(51.983643%, 53.58429%, 71.418762%)" offset="0.480469"/><stop stop-opacity="1" stop-color="rgb(51.635742%, 53.236389%, 71.159363%)" offset="0.484375"/><stop stop-opacity="1" stop-color="rgb(51.289368%, 52.888489%, 70.901489%)" offset="0.488281"/><stop stop-opacity="1" stop-color="rgb(50.941467%, 52.542114%, 70.64209%)" offset="0.492188"/><stop stop-opacity="1" stop-color="rgb(50.595093%, 52.194214%, 70.384216%)" offset="0.496094"/><stop stop-opacity="1" stop-color="rgb(50.247192%, 51.847839%, 70.124817%)" offset="0.5"/><stop stop-opacity="1" stop-color="rgb(49.900818%, 51.499939%, 69.866943%)" offset="0.503906"/><stop stop-opacity="1" stop-color="rgb(49.552917%, 51.153564%, 69.607544%)" offset="0.507812"/><stop stop-opacity="1" stop-color="rgb(49.206543%, 50.805664%, 69.34967%)" offset="0.511719"/><stop stop-opacity="1" stop-color="rgb(48.858643%, 50.45929%, 69.090271%)" offset="0.515625"/><stop stop-opacity="1" stop-color="rgb(48.510742%, 50.111389%, 68.832397%)" offset="0.519531"/><stop stop-opacity="1" stop-color="rgb(48.164368%, 49.763489%, 68.572998%)" offset="0.523438"/><stop stop-opacity="1" stop-color="rgb(47.816467%, 49.417114%, 68.313599%)" offset="0.527344"/><stop stop-opacity="1" stop-color="rgb(47.470093%, 49.069214%, 68.055725%)" offset="0.53125"/><stop stop-opacity="1" stop-color="rgb(47.122192%, 48.722839%, 67.796326%)" offset="0.535156"/><stop stop-opacity="1" stop-color="rgb(46.775818%, 48.374939%, 67.538452%)" offset="0.539062"/><stop stop-opacity="1" stop-color="rgb(46.427917%, 48.028564%, 67.279053%)" offset="0.542969"/><stop stop-opacity="1" stop-color="rgb(46.081543%, 47.680664%, 67.021179%)" offset="0.546875"/><stop stop-opacity="1" stop-color="rgb(45.733643%, 47.33429%, 66.76178%)" offset="0.550781"/><stop stop-opacity="1" stop-color="rgb(45.385742%, 46.986389%, 66.503906%)" offset="0.554688"/><stop stop-opacity="1" stop-color="rgb(45.039368%, 46.638489%, 66.244507%)" offset="0.558594"/><stop stop-opacity="1" stop-color="rgb(44.691467%, 46.292114%, 65.986633%)" offset="0.5625"/><stop stop-opacity="1" stop-color="rgb(44.345093%, 45.944214%, 65.727234%)" offset="0.566406"/><stop stop-opacity="1" stop-color="rgb(43.997192%, 45.597839%, 65.46936%)" offset="0.570312"/><stop stop-opacity="1" stop-color="rgb(43.650818%, 45.249939%, 65.209961%)" offset="0.574219"/><stop stop-opacity="1" stop-color="rgb(43.302917%, 44.903564%, 64.952087%)" offset="0.578125"/><stop stop-opacity="1" stop-color="rgb(42.956543%, 44.555664%, 64.692688%)" offset="0.582031"/><stop stop-opacity="1" stop-color="rgb(42.608643%, 44.20929%, 64.434814%)" offset="0.585938"/><stop stop-opacity="1" stop-color="rgb(42.260742%, 43.861389%, 64.175415%)" offset="0.589844"/><stop stop-opacity="1" stop-color="rgb(41.914368%, 43.513489%, 63.916016%)" offset="0.59375"/><stop stop-opacity="1" stop-color="rgb(41.566467%, 43.167114%, 63.658142%)" offset="0.597656"/><stop stop-opacity="1" stop-color="rgb(41.220093%, 42.819214%, 63.398743%)" offset="0.601562"/><stop stop-opacity="1" stop-color="rgb(40.872192%, 42.472839%, 63.140869%)" offset="0.605469"/><stop stop-opacity="1" stop-color="rgb(40.525818%, 42.124939%, 62.88147%)" offset="0.609375"/><stop stop-opacity="1" stop-color="rgb(40.177917%, 41.778564%, 62.623596%)" offset="0.613281"/><stop stop-opacity="1" stop-color="rgb(39.831543%, 41.430664%, 62.364197%)" offset="0.617188"/><stop stop-opacity="1" stop-color="rgb(39.483643%, 41.08429%, 62.106323%)" offset="0.621094"/><stop stop-opacity="1" stop-color="rgb(39.135742%, 40.736389%, 61.846924%)" offset="0.625"/><stop stop-opacity="1" stop-color="rgb(38.789368%, 40.388489%, 61.58905%)" offset="0.628906"/><stop stop-opacity="1" stop-color="rgb(38.441467%, 40.042114%, 61.329651%)" offset="0.632812"/><stop stop-opacity="1" stop-color="rgb(38.095093%, 39.694214%, 61.071777%)" offset="0.636719"/><stop stop-opacity="1" stop-color="rgb(37.747192%, 39.347839%, 60.812378%)" offset="0.640625"/><stop stop-opacity="1" stop-color="rgb(37.400818%, 38.999939%, 60.554504%)" offset="0.644531"/><stop stop-opacity="1" stop-color="rgb(37.052917%, 38.653564%, 60.295105%)" offset="0.648438"/><stop stop-opacity="1" stop-color="rgb(36.706543%, 38.305664%, 60.037231%)" offset="0.652344"/><stop stop-opacity="1" stop-color="rgb(36.358643%, 37.95929%, 59.777832%)" offset="0.65625"/><stop stop-opacity="1" stop-color="rgb(36.010742%, 37.611389%, 59.518433%)" offset="0.660156"/><stop stop-opacity="1" stop-color="rgb(35.664368%, 37.263489%, 59.260559%)" offset="0.664062"/><stop stop-opacity="1" stop-color="rgb(35.316467%, 36.917114%, 59.00116%)" offset="0.667969"/><stop stop-opacity="1" stop-color="rgb(34.970093%, 36.569214%, 58.743286%)" offset="0.671875"/><stop stop-opacity="1" stop-color="rgb(34.622192%, 36.222839%, 58.483887%)" offset="0.675781"/><stop stop-opacity="1" stop-color="rgb(34.275818%, 35.874939%, 58.226013%)" offset="0.679688"/><stop stop-opacity="1" stop-color="rgb(33.927917%, 35.528564%, 57.966614%)" offset="0.683594"/><stop stop-opacity="1" stop-color="rgb(33.581543%, 35.180664%, 57.70874%)" offset="0.6875"/><stop stop-opacity="1" stop-color="rgb(33.233643%, 34.83429%, 57.449341%)" offset="0.691406"/><stop stop-opacity="1" stop-color="rgb(32.885742%, 34.486389%, 57.191467%)" offset="0.695312"/><stop stop-opacity="1" stop-color="rgb(32.539368%, 34.138489%, 56.932068%)" offset="0.699219"/><stop stop-opacity="1" stop-color="rgb(32.191467%, 33.792114%, 56.674194%)" offset="0.703125"/><stop stop-opacity="1" stop-color="rgb(31.845093%, 33.444214%, 56.414795%)" offset="0.707031"/><stop stop-opacity="1" stop-color="rgb(31.497192%, 33.097839%, 56.156921%)" offset="0.710938"/><stop stop-opacity="1" stop-color="rgb(31.150818%, 32.749939%, 55.897522%)" offset="0.714844"/><stop stop-opacity="1" stop-color="rgb(30.802917%, 32.403564%, 55.639648%)" offset="0.71875"/><stop stop-opacity="1" stop-color="rgb(30.456543%, 32.055664%, 55.380249%)" offset="0.722656"/><stop stop-opacity="1" stop-color="rgb(30.108643%, 31.70929%, 55.122375%)" offset="0.726562"/><stop stop-opacity="1" stop-color="rgb(29.760742%, 31.361389%, 54.862976%)" offset="0.730469"/><stop stop-opacity="1" stop-color="rgb(29.414368%, 31.013489%, 54.603577%)" offset="0.734375"/><stop stop-opacity="1" stop-color="rgb(29.066467%, 30.667114%, 54.345703%)" offset="0.738281"/><stop stop-opacity="1" stop-color="rgb(28.720093%, 30.319214%, 54.086304%)" offset="0.742188"/><stop stop-opacity="1" stop-color="rgb(28.372192%, 29.972839%, 53.82843%)" offset="0.746094"/><stop stop-opacity="1" stop-color="rgb(28.199768%, 29.798889%, 53.69873%)" offset="1"/></radialGradient></defs><g clip-path="url(#6e592e816e)"><g clip-path="url(#6e33d4046c)"><g clip-path="url(#5b46dd5dd3)"><path fill="url(#30edca00b7)" d="M 0 14.4375 L 0 45.871094 L 60 45.871094 L 60 14.4375 Z M 0 14.4375 " fill-rule="nonzero"/></g></g></g><path fill="#777bb3" d="M 30 44.703125 C 45.921875 44.703125 58.828125 38.191406 58.828125 30.15625 C 58.828125 22.117188 45.921875 15.605469 30 15.605469 C 14.078125 15.605469 1.171875 22.117188 1.171875 30.15625 C 1.171875 38.191406 14.078125 44.703125 30 44.703125 " fill-opacity="1" fill-rule="nonzero"/><path fill="#000000" d="M 16.296875 31.957031 C 17.609375 31.957031 18.585938 31.71875 19.203125 31.246094 C 19.816406 30.773438 20.238281 29.960938 20.457031 28.828125 C 20.664062 27.769531 20.585938 27.027344 20.226562 26.628906 C 19.855469 26.222656 19.054688 26.015625 17.847656 26.015625 L 15.757812 26.015625 L 14.597656 31.957031 Z M 9.457031 39.28125 C 9.359375 39.28125 9.265625 39.238281 9.203125 39.164062 C 9.140625 39.082031 9.117188 38.996094 9.136719 38.894531 L 12.210938 23.144531 C 12.246094 22.96875 12.351562 22.882812 12.53125 22.882812 L 19.15625 22.882812 C 21.238281 22.882812 22.785156 23.441406 23.761719 24.554688 C 24.738281 25.671875 25.042969 27.230469 24.660156 29.191406 C 24.503906 29.992188 24.234375 30.734375 23.863281 31.398438 C 23.488281 32.0625 22.996094 32.679688 22.398438 33.226562 C 21.679688 33.898438 20.867188 34.382812 19.984375 34.667969 C 19.117188 34.949219 18 35.09375 16.667969 35.09375 L 13.988281 35.09375 L 13.222656 39.019531 C 13.1875 39.191406 13.082031 39.28125 12.902344 39.28125 Z M 9.457031 39.28125 " fill-opacity="1" fill-rule="nonzero"/><path fill="#ffffff" d="M 16.027344 26.339844 L 17.851562 26.339844 C 19.304688 26.339844 19.8125 26.65625 19.984375 26.847656 C 20.269531 27.160156 20.324219 27.824219 20.140625 28.765625 C 19.933594 29.820312 19.550781 30.566406 19.003906 30.988281 C 18.445312 31.417969 17.535156 31.632812 16.296875 31.632812 L 14.992188 31.632812 Z M 19.152344 22.558594 L 12.53125 22.558594 C 12.375 22.558594 12.234375 22.605469 12.117188 22.703125 C 11.996094 22.804688 11.921875 22.929688 11.890625 23.082031 L 8.816406 38.832031 C 8.800781 38.929688 8.800781 39.023438 8.824219 39.117188 C 8.847656 39.210938 8.890625 39.292969 8.953125 39.371094 C 9.015625 39.445312 9.089844 39.503906 9.179688 39.542969 C 9.265625 39.585938 9.359375 39.605469 9.457031 39.605469 L 12.902344 39.605469 C 13.058594 39.605469 13.195312 39.554688 13.316406 39.457031 C 13.4375 39.359375 13.511719 39.234375 13.539062 39.082031 L 14.253906 35.417969 L 16.667969 35.417969 C 18.035156 35.417969 19.183594 35.269531 20.085938 34.976562 C 21.011719 34.675781 21.863281 34.167969 22.621094 33.464844 C 23.242188 32.894531 23.757812 32.253906 24.148438 31.558594 C 24.535156 30.863281 24.816406 30.089844 24.980469 29.253906 C 25.382812 27.191406 25.054688 25.539062 24.003906 24.34375 C 22.96875 23.15625 21.335938 22.558594 19.15625 22.558594 M 14.203125 32.285156 L 16.300781 32.285156 C 17.6875 32.285156 18.722656 32.023438 19.402344 31.5 C 20.082031 30.980469 20.539062 30.109375 20.777344 28.890625 C 21.007812 27.722656 20.902344 26.894531 20.46875 26.414062 C 20.03125 25.933594 19.160156 25.691406 17.851562 25.691406 L 15.488281 25.691406 L 14.203125 32.285156 M 19.15625 23.207031 C 21.148438 23.207031 22.601562 23.726562 23.515625 24.769531 C 24.429688 25.808594 24.703125 27.265625 24.339844 29.132812 C 24.191406 29.902344 23.9375 30.605469 23.578125 31.242188 C 23.222656 31.878906 22.753906 32.460938 22.175781 32.992188 C 21.488281 33.632812 20.722656 34.089844 19.882812 34.359375 C 19.042969 34.632812 17.972656 34.769531 16.667969 34.769531 L 13.71875 34.769531 L 12.902344 38.957031 L 9.457031 38.957031 L 12.53125 23.207031 L 19.15625 23.207031 " fill-opacity="1" fill-rule="nonzero"/><path fill="#000000" d="M 32.558594 35.09375 C 32.460938 35.09375 32.367188 35.050781 32.304688 34.972656 C 32.246094 34.898438 32.21875 34.800781 32.238281 34.707031 L 33.597656 27.738281 C 33.726562 27.074219 33.695312 26.597656 33.507812 26.398438 C 33.394531 26.273438 33.050781 26.070312 32.03125 26.070312 L 29.570312 26.070312 L 27.859375 34.828125 C 27.824219 35.003906 27.71875 35.09375 27.539062 35.09375 L 24.121094 35.09375 C 24.019531 35.09375 23.933594 35.054688 23.871094 34.972656 C 23.804688 34.894531 23.78125 34.804688 23.800781 34.707031 L 26.875 18.957031 C 26.910156 18.78125 27.015625 18.691406 27.195312 18.691406 L 30.613281 18.691406 C 30.714844 18.691406 30.800781 18.734375 30.863281 18.8125 C 30.929688 18.890625 30.953125 18.980469 30.933594 19.078125 L 30.191406 22.882812 L 32.839844 22.882812 C 34.859375 22.882812 36.226562 23.234375 37.027344 23.964844 C 37.839844 24.707031 38.09375 25.898438 37.78125 27.5 L 36.347656 34.832031 C 36.316406 35.003906 36.207031 35.09375 36.03125 35.09375 Z M 32.558594 35.09375 " fill-opacity="1" fill-rule="nonzero"/><path fill="#ffffff" d="M 30.613281 18.367188 L 27.195312 18.367188 C 27.039062 18.367188 26.902344 18.417969 26.78125 18.515625 C 26.660156 18.617188 26.585938 18.742188 26.554688 18.894531 L 23.484375 34.644531 C 23.464844 34.738281 23.46875 34.835938 23.492188 34.929688 C 23.515625 35.023438 23.558594 35.105469 23.621094 35.179688 C 23.679688 35.253906 23.757812 35.3125 23.84375 35.355469 C 23.933594 35.394531 24.023438 35.417969 24.121094 35.417969 L 27.539062 35.417969 C 27.695312 35.417969 27.832031 35.367188 27.953125 35.269531 C 28.074219 35.167969 28.148438 35.042969 28.179688 34.890625 L 29.835938 26.394531 L 32.03125 26.394531 C 33.046875 26.394531 33.261719 26.609375 33.269531 26.617188 C 33.332031 26.683594 33.414062 26.988281 33.277344 27.675781 L 31.917969 34.644531 C 31.902344 34.738281 31.902344 34.835938 31.925781 34.929688 C 31.949219 35.023438 31.992188 35.105469 32.054688 35.179688 C 32.117188 35.253906 32.191406 35.3125 32.28125 35.355469 C 32.367188 35.394531 32.460938 35.417969 32.558594 35.417969 L 36.03125 35.417969 C 36.1875 35.417969 36.324219 35.367188 36.445312 35.269531 C 36.566406 35.167969 36.640625 35.042969 36.667969 34.890625 L 38.097656 27.5625 C 38.433594 25.84375 38.148438 24.550781 37.246094 23.726562 C 36.386719 22.9375 34.945312 22.554688 32.839844 22.554688 L 30.585938 22.554688 L 31.253906 19.140625 C 31.269531 19.046875 31.269531 18.953125 31.246094 18.859375 C 31.222656 18.765625 31.179688 18.679688 31.117188 18.605469 C 31.054688 18.53125 30.980469 18.472656 30.890625 18.429688 C 30.804688 18.390625 30.710938 18.367188 30.613281 18.367188 M 30.613281 19.015625 L 29.796875 23.203125 L 32.839844 23.203125 C 34.757812 23.203125 36.078125 23.539062 36.804688 24.203125 C 37.535156 24.867188 37.75 25.949219 37.460938 27.4375 L 36.03125 34.769531 L 32.558594 34.769531 L 33.917969 27.800781 C 34.074219 27.007812 34.015625 26.464844 33.746094 26.175781 C 33.480469 25.890625 32.90625 25.746094 32.03125 25.746094 L 29.300781 25.746094 L 27.539062 34.769531 L 24.121094 34.769531 L 27.195312 19.015625 L 30.613281 19.015625 " fill-opacity="1" fill-rule="nonzero"/><path fill="#000000" d="M 43.1875 31.957031 C 44.496094 31.957031 45.472656 31.71875 46.09375 31.246094 C 46.703125 30.773438 47.125 29.960938 47.347656 28.828125 C 47.554688 27.769531 47.476562 27.027344 47.113281 26.628906 C 46.746094 26.222656 45.945312 26.015625 44.738281 26.015625 L 42.648438 26.015625 L 41.488281 31.957031 Z M 36.34375 39.28125 C 36.25 39.28125 36.15625 39.238281 36.09375 39.160156 C 36.027344 39.082031 36.007812 38.992188 36.027344 38.894531 L 39.097656 23.144531 C 39.132812 22.96875 39.242188 22.882812 39.417969 22.882812 L 46.042969 22.882812 C 48.125 22.882812 49.675781 23.441406 50.648438 24.554688 C 51.628906 25.671875 51.929688 27.230469 51.546875 29.191406 C 51.390625 29.992188 51.125 30.734375 50.75 31.398438 C 50.378906 32.0625 49.886719 32.679688 49.285156 33.226562 C 48.566406 33.898438 47.753906 34.382812 46.871094 34.667969 C 46.003906 34.949219 44.890625 35.09375 43.558594 35.09375 L 40.875 35.09375 L 40.109375 39.019531 C 40.074219 39.191406 39.96875 39.28125 39.789062 39.28125 Z M 36.34375 39.28125 " fill-opacity="1" fill-rule="nonzero"/><path fill="#ffffff" d="M 42.914062 26.339844 L 44.738281 26.339844 C 46.195312 26.339844 46.703125 26.65625 46.875 26.847656 C 47.160156 27.160156 47.210938 27.824219 47.027344 28.765625 C 46.824219 29.820312 46.441406 30.566406 45.894531 30.988281 C 45.335938 31.417969 44.421875 31.632812 43.1875 31.632812 L 41.882812 31.632812 Z M 46.042969 22.558594 L 39.417969 22.558594 C 39.261719 22.558594 39.125 22.605469 39.003906 22.703125 C 38.886719 22.804688 38.808594 22.929688 38.78125 23.082031 L 35.707031 38.832031 C 35.6875 38.929688 35.691406 39.023438 35.714844 39.117188 C 35.738281 39.210938 35.78125 39.292969 35.84375 39.371094 C 35.90625 39.445312 35.980469 39.503906 36.066406 39.542969 C 36.15625 39.585938 36.246094 39.605469 36.34375 39.605469 L 39.789062 39.605469 C 39.945312 39.605469 40.085938 39.554688 40.203125 39.457031 C 40.324219 39.359375 40.398438 39.234375 40.429688 39.082031 L 41.144531 35.417969 L 43.558594 35.417969 C 44.921875 35.417969 46.074219 35.269531 46.972656 34.976562 C 47.902344 34.675781 48.753906 34.167969 49.507812 33.464844 C 50.132812 32.894531 50.644531 32.253906 51.035156 31.558594 C 51.425781 30.863281 51.703125 30.089844 51.867188 29.253906 C 52.269531 27.191406 51.941406 25.539062 50.894531 24.34375 C 49.855469 23.15625 48.222656 22.558594 46.042969 22.558594 M 41.09375 32.285156 L 43.1875 32.285156 C 44.578125 32.285156 45.609375 32.023438 46.289062 31.5 C 46.96875 30.980469 47.429688 30.109375 47.667969 28.890625 C 47.894531 27.722656 47.792969 26.894531 47.355469 26.414062 C 46.921875 25.933594 46.046875 25.691406 44.738281 25.691406 L 42.378906 25.691406 L 41.09375 32.285156 M 46.042969 23.207031 C 48.035156 23.207031 49.492188 23.726562 50.402344 24.769531 C 51.316406 25.808594 51.59375 27.265625 51.230469 29.132812 C 51.078125 29.902344 50.824219 30.605469 50.46875 31.242188 C 50.109375 31.878906 49.640625 32.460938 49.066406 32.992188 C 48.378906 33.632812 47.613281 34.089844 46.773438 34.359375 C 45.929688 34.632812 44.859375 34.769531 43.558594 34.769531 L 40.609375 34.769531 L 39.789062 38.957031 L 36.34375 38.957031 L 39.417969 23.207031 L 46.042969 23.207031 " fill-opacity="1" fill-rule="nonzero"/></svg>