<svg xmlns="http://www.w3.org/2000/svg" xmlns:xlink="http://www.w3.org/1999/xlink" width="80" zoomAndPan="magnify" viewBox="0 0 60 60" height="80" preserveAspectRatio="xMidYMid meet" version="1.0"><path fill="#f03c2e" d="M 58.867188 27.328125 L 32.671875 1.132812 C 32.308594 0.769531 31.890625 0.492188 31.417969 0.292969 C 30.945312 0.0976562 30.453125 0 29.941406 0 C 29.425781 0 28.933594 0.0976562 28.460938 0.292969 C 27.988281 0.492188 27.570312 0.769531 27.207031 1.132812 L 21.769531 6.570312 L 28.671875 13.46875 C 30.277344 12.90625 32.113281 13.292969 33.390625 14.570312 C 33.695312 14.875 33.953125 15.214844 34.160156 15.59375 C 34.371094 15.96875 34.523438 16.367188 34.617188 16.789062 C 34.714844 17.207031 34.75 17.632812 34.726562 18.0625 C 34.703125 18.496094 34.621094 18.914062 34.480469 19.320312 L 41.132812 25.96875 C 42.742188 25.414062 44.597656 25.773438 45.882812 27.0625 C 46.09375 27.273438 46.285156 27.507812 46.453125 27.757812 C 46.621094 28.011719 46.761719 28.273438 46.878906 28.554688 C 46.996094 28.832031 47.082031 29.121094 47.140625 29.417969 C 47.199219 29.714844 47.230469 30.011719 47.230469 30.3125 C 47.230469 30.617188 47.199219 30.914062 47.140625 31.210938 C 47.082031 31.507812 46.996094 31.796875 46.878906 32.074219 C 46.761719 32.355469 46.621094 32.617188 46.453125 32.871094 C 46.285156 33.121094 46.09375 33.351562 45.882812 33.566406 C 45.667969 33.78125 45.4375 33.972656 45.183594 34.140625 C 44.933594 34.304688 44.667969 34.449219 44.390625 34.5625 C 44.109375 34.679688 43.824219 34.765625 43.527344 34.824219 C 43.230469 34.882812 42.929688 34.914062 42.628906 34.914062 C 42.328125 34.914062 42.027344 34.882812 41.730469 34.824219 C 41.433594 34.765625 41.148438 34.679688 40.867188 34.5625 C 40.589844 34.445312 40.324219 34.304688 40.074219 34.136719 C 39.824219 33.96875 39.589844 33.777344 39.375 33.5625 C 38.027344 32.214844 37.691406 30.226562 38.375 28.5625 L 32.171875 22.359375 L 32.171875 38.683594 C 32.625 38.90625 33.03125 39.199219 33.390625 39.554688 C 33.605469 39.765625 33.796875 40 33.964844 40.25 C 34.132812 40.5 34.273438 40.765625 34.386719 41.042969 C 34.503906 41.324219 34.589844 41.609375 34.648438 41.90625 C 34.710938 42.203125 34.738281 42.503906 34.738281 42.804688 C 34.738281 43.105469 34.710938 43.40625 34.648438 43.703125 C 34.589844 43.996094 34.503906 44.285156 34.386719 44.5625 C 34.273438 44.84375 34.132812 45.109375 33.964844 45.359375 C 33.796875 45.609375 33.605469 45.84375 33.390625 46.054688 C 33.179688 46.269531 32.945312 46.460938 32.695312 46.628906 C 32.445312 46.796875 32.179688 46.9375 31.898438 47.050781 C 31.621094 47.167969 31.332031 47.253906 31.039062 47.3125 C 30.742188 47.371094 30.441406 47.402344 30.140625 47.402344 C 29.839844 47.402344 29.539062 47.371094 29.242188 47.3125 C 28.949219 47.253906 28.660156 47.167969 28.382812 47.050781 C 28.101562 46.9375 27.835938 46.796875 27.585938 46.628906 C 27.335938 46.460938 27.101562 46.269531 26.890625 46.054688 C 26.675781 45.84375 26.484375 45.609375 26.316406 45.359375 C 26.148438 45.109375 26.007812 44.84375 25.890625 44.5625 C 25.777344 44.285156 25.6875 43.996094 25.628906 43.703125 C 25.570312 43.40625 25.539062 43.105469 25.539062 42.804688 C 25.539062 42.503906 25.570312 42.203125 25.628906 41.90625 C 25.6875 41.609375 25.777344 41.324219 25.890625 41.042969 C 26.007812 40.765625 26.148438 40.5 26.316406 40.25 C 26.484375 40 26.675781 39.765625 26.890625 39.554688 C 27.332031 39.109375 27.828125 38.773438 28.394531 38.550781 L 28.394531 22.078125 C 27.847656 21.851562 27.332031 21.519531 26.890625 21.074219 C 26.566406 20.75 26.296875 20.386719 26.082031 19.984375 C 25.867188 19.582031 25.714844 19.15625 25.628906 18.710938 C 25.539062 18.261719 25.519531 17.8125 25.566406 17.359375 C 25.613281 16.90625 25.722656 16.46875 25.898438 16.046875 L 19.09375 9.242188 L 1.128906 27.1875 C 0.769531 27.550781 0.488281 27.96875 0.292969 28.441406 C 0.0976562 28.914062 -0.00390625 29.40625 -0.00390625 29.921875 C -0.00390625 30.433594 0.0976562 30.925781 0.292969 31.398438 C 0.488281 31.871094 0.769531 32.289062 1.128906 32.652344 L 27.328125 58.847656 C 27.691406 59.210938 28.109375 59.488281 28.582031 59.683594 C 29.054688 59.878906 29.546875 59.980469 30.058594 59.980469 C 30.574219 59.980469 31.066406 59.878906 31.539062 59.683594 C 32.011719 59.488281 32.429688 59.210938 32.792969 58.847656 L 58.867188 32.8125 C 59.230469 32.449219 59.507812 32.03125 59.707031 31.558594 C 59.902344 31.085938 60 30.59375 60 30.078125 C 60 29.566406 59.902344 29.074219 59.707031 28.601562 C 59.507812 28.128906 59.230469 27.710938 58.867188 27.347656 " fill-opacity="1" fill-rule="nonzero"/></svg>