<svg xmlns="http://www.w3.org/2000/svg" xmlns:xlink="http://www.w3.org/1999/xlink" width="80" zoomAndPan="magnify" viewBox="0 0 60 60" height="80" preserveAspectRatio="xMidYMid meet" version="1.0"><path fill="#00d8ff" d="M 49.289062 20.617188 C 48.671875 20.402344 48.027344 20.203125 47.363281 20.011719 C 47.472656 19.566406 47.574219 19.128906 47.664062 18.695312 C 49.121094 11.617188 48.167969 5.914062 44.910156 4.035156 C 41.785156 2.234375 36.675781 4.113281 31.519531 8.601562 C 31.023438 9.03125 30.523438 9.488281 30.027344 9.96875 C 29.695312 9.652344 29.367188 9.34375 29.035156 9.050781 C 23.628906 4.253906 18.210938 2.230469 14.957031 4.113281 C 11.835938 5.921875 10.910156 11.28125 12.222656 17.992188 C 12.351562 18.636719 12.5 19.300781 12.667969 19.972656 C 11.898438 20.191406 11.160156 20.421875 10.449219 20.667969 C 4.113281 22.878906 0.0625 26.339844 0.0625 29.933594 C 0.0625 33.640625 4.410156 37.363281 11.011719 39.617188 C 11.53125 39.796875 12.074219 39.964844 12.628906 40.125 C 12.449219 40.851562 12.292969 41.5625 12.160156 42.261719 C 10.90625 48.851562 11.886719 54.085938 15 55.878906 C 18.210938 57.734375 23.609375 55.828125 28.859375 51.238281 C 29.277344 50.878906 29.695312 50.492188 30.109375 50.089844 C 30.652344 50.609375 31.191406 51.101562 31.726562 51.566406 C 36.816406 55.941406 41.84375 57.707031 44.953125 55.910156 C 48.164062 54.050781 49.207031 48.425781 47.851562 41.585938 C 47.75 41.0625 47.628906 40.53125 47.496094 39.988281 C 47.875 39.875 48.246094 39.757812 48.609375 39.640625 C 55.472656 37.363281 59.9375 33.691406 59.9375 29.933594 C 59.9375 26.328125 55.757812 22.84375 49.289062 20.617188 Z M 47.804688 37.210938 C 47.476562 37.320312 47.140625 37.425781 46.796875 37.527344 C 46.039062 35.128906 45.015625 32.578125 43.765625 29.945312 C 44.960938 27.371094 45.941406 24.855469 46.679688 22.472656 C 47.289062 22.652344 47.886719 22.835938 48.457031 23.035156 C 54 24.941406 57.378906 27.761719 57.378906 29.933594 C 57.378906 32.246094 53.730469 35.25 47.804688 37.210938 Z M 45.34375 42.082031 C 45.945312 45.109375 46.027344 47.84375 45.628906 49.980469 C 45.273438 51.902344 44.558594 53.183594 43.671875 53.695312 C 41.78125 54.789062 37.75 53.371094 33.398438 49.625 C 32.898438 49.195312 32.394531 48.738281 31.890625 48.253906 C 33.578125 46.410156 35.265625 44.265625 36.910156 41.882812 C 39.804688 41.628906 42.539062 41.207031 45.019531 40.636719 C 45.140625 41.128906 45.25 41.609375 45.34375 42.082031 Z M 20.476562 53.507812 C 18.632812 54.160156 17.164062 54.179688 16.277344 53.667969 C 14.386719 52.578125 13.601562 48.375 14.675781 42.738281 C 14.796875 42.089844 14.941406 41.425781 15.113281 40.75 C 17.5625 41.292969 20.277344 41.683594 23.179688 41.917969 C 24.835938 44.246094 26.570312 46.386719 28.320312 48.261719 C 27.9375 48.632812 27.558594 48.984375 27.179688 49.3125 C 24.855469 51.34375 22.527344 52.785156 20.476562 53.507812 Z M 11.839844 37.199219 C 8.921875 36.199219 6.507812 34.90625 4.855469 33.488281 C 3.371094 32.21875 2.621094 30.957031 2.621094 29.933594 C 2.621094 27.753906 5.871094 24.972656 11.292969 23.082031 C 11.949219 22.855469 12.640625 22.636719 13.355469 22.4375 C 14.105469 24.871094 15.085938 27.417969 16.273438 29.992188 C 15.070312 32.605469 14.074219 35.195312 13.316406 37.660156 C 12.808594 37.515625 12.316406 37.359375 11.839844 37.199219 Z M 14.734375 17.5 C 13.609375 11.75 14.355469 7.414062 16.238281 6.328125 C 18.242188 5.167969 22.667969 6.820312 27.335938 10.964844 C 27.636719 11.230469 27.9375 11.507812 28.238281 11.792969 C 26.496094 13.660156 24.777344 15.785156 23.136719 18.101562 C 20.320312 18.363281 17.625 18.78125 15.144531 19.34375 C 14.992188 18.71875 14.851562 18.101562 14.734375 17.5 Z M 40.558594 23.875 C 39.96875 22.851562 39.359375 21.851562 38.742188 20.882812 C 40.652344 21.121094 42.480469 21.441406 44.199219 21.835938 C 43.683594 23.488281 43.042969 25.214844 42.285156 26.988281 C 41.742188 25.957031 41.164062 24.917969 40.558594 23.875 Z M 30.027344 13.621094 C 31.210938 14.898438 32.390625 16.324219 33.554688 17.871094 C 32.382812 17.816406 31.195312 17.789062 30 17.789062 C 28.816406 17.789062 27.640625 17.816406 26.476562 17.871094 C 27.636719 16.335938 28.832031 14.914062 30.027344 13.621094 Z M 19.429688 23.890625 C 18.835938 24.917969 18.273438 25.949219 17.738281 26.988281 C 16.996094 25.222656 16.355469 23.484375 15.835938 21.808594 C 17.542969 21.425781 19.367188 21.113281 21.265625 20.875 C 20.636719 21.855469 20.023438 22.863281 19.429688 23.890625 Z M 21.320312 39.167969 C 19.359375 38.953125 17.507812 38.65625 15.800781 38.285156 C 16.332031 36.578125 16.980469 34.804688 17.742188 33 C 18.277344 34.035156 18.84375 35.070312 19.4375 36.097656 L 19.441406 36.097656 C 20.046875 37.144531 20.675781 38.167969 21.320312 39.167969 Z M 30.097656 46.421875 C 28.886719 45.117188 27.679688 43.667969 26.496094 42.113281 C 27.644531 42.160156 28.8125 42.183594 30 42.183594 C 31.222656 42.183594 32.429688 42.15625 33.613281 42.101562 C 32.449219 43.6875 31.269531 45.136719 30.097656 46.421875 Z M 42.308594 32.910156 C 43.105469 34.730469 43.78125 36.496094 44.320312 38.171875 C 42.582031 38.570312 40.707031 38.886719 38.734375 39.125 C 39.355469 38.140625 39.96875 37.125 40.570312 36.078125 C 41.183594 35.023438 41.761719 33.964844 42.308594 32.910156 Z M 38.355469 34.800781 C 37.417969 36.425781 36.457031 37.972656 35.480469 39.433594 C 33.707031 39.558594 31.871094 39.625 30 39.625 C 28.136719 39.625 26.324219 39.570312 24.578125 39.453125 C 23.5625 37.976562 22.582031 36.421875 21.652344 34.816406 C 20.726562 33.214844 19.871094 31.597656 19.097656 29.992188 C 19.871094 28.386719 20.722656 26.765625 21.644531 25.167969 C 22.570312 23.566406 23.542969 22.019531 24.546875 20.550781 C 26.328125 20.414062 28.15625 20.34375 30 20.34375 C 31.855469 20.34375 33.679688 20.414062 35.460938 20.550781 C 36.453125 22.011719 37.417969 23.550781 38.347656 25.15625 C 39.285156 26.777344 40.148438 28.382812 40.925781 29.957031 C 40.152344 31.558594 39.289062 33.183594 38.355469 34.800781 Z M 43.628906 6.25 C 45.636719 7.40625 46.417969 12.066406 45.15625 18.179688 C 45.078125 18.570312 44.984375 18.964844 44.886719 19.367188 C 42.402344 18.796875 39.707031 18.371094 36.882812 18.105469 C 35.238281 15.761719 33.53125 13.632812 31.820312 11.792969 C 32.28125 11.347656 32.742188 10.925781 33.199219 10.527344 C 37.617188 6.683594 41.75 5.164062 43.628906 6.25 Z M 30 24.585938 C 32.953125 24.585938 35.347656 26.980469 35.347656 29.933594 C 35.347656 32.882812 32.953125 35.277344 30 35.277344 C 27.046875 35.277344 24.652344 32.882812 24.652344 29.933594 C 24.652344 26.980469 27.046875 24.585938 30 24.585938 Z M 30 24.585938 " fill-opacity="1" fill-rule="nonzero"/></svg>