<svg xmlns="http://www.w3.org/2000/svg" xmlns:xlink="http://www.w3.org/1999/xlink" width="80" zoomAndPan="magnify" viewBox="0 0 60 60" height="80" preserveAspectRatio="xMidYMid meet" version="1.0"><defs><clipPath id="199236beea"><path d="M 0 17.511719 L 60 17.511719 L 60 42.261719 L 0 42.261719 Z M 0 17.511719 " clip-rule="nonzero"/></clipPath></defs><g clip-path="url(#199236beea)"><path fill="#d50000" d="M 0.03125 17.511719 L 59.96875 17.511719 L 59.96875 38.550781 L 30 38.550781 L 30 42.261719 L 16.265625 42.261719 L 16.265625 38.550781 L 0.03125 38.550781 Z M 0.03125 17.511719 " fill-opacity="1" fill-rule="nonzero"/></g><path fill="#ffffff" d="M 3.777344 34.835938 L 10.023438 34.835938 L 10.023438 24.9375 L 13.769531 24.9375 L 13.769531 34.835938 L 16.265625 34.835938 L 16.265625 21.226562 L 3.777344 21.226562 Z M 20.011719 21.226562 L 20.011719 38.550781 L 26.253906 38.550781 L 26.253906 34.835938 L 32.496094 34.835938 L 32.496094 21.226562 Z M 30 31.125 L 26.253906 31.125 L 26.253906 24.9375 L 30 24.9375 Z M 36.242188 21.226562 L 36.242188 34.835938 L 42.484375 34.835938 L 42.484375 24.9375 L 46.230469 24.9375 L 46.230469 34.835938 L 49.976562 34.835938 L 49.976562 24.9375 L 53.722656 24.9375 L 53.722656 34.835938 L 56.222656 34.835938 L 56.222656 21.226562 Z M 36.242188 21.226562 " fill-opacity="1" fill-rule="nonzero"/></svg>